<?xml version="1.0" encoding="utf-8" standalone="no"?>
<!DOCTYPE svg PUBLIC "-//W3C//DTD SVG 1.1//EN"
  "http://www.w3.org/Graphics/SVG/1.1/DTD/svg11.dtd">
<!-- Created with matplotlib (https://matplotlib.org/) -->
<svg height="133.540344pt" version="1.1" viewBox="0 0 174.24625 133.540344" width="174.24625pt" xmlns="http://www.w3.org/2000/svg" xmlns:xlink="http://www.w3.org/1999/xlink">
 <metadata>
  <rdf:RDF xmlns:cc="http://creativecommons.org/ns#" xmlns:dc="http://purl.org/dc/elements/1.1/" xmlns:rdf="http://www.w3.org/1999/02/22-rdf-syntax-ns#">
   <cc:Work>
    <dc:type rdf:resource="http://purl.org/dc/dcmitype/StillImage"/>
    <dc:date>2021-12-22T18:21:01.173388</dc:date>
    <dc:format>image/svg+xml</dc:format>
    <dc:creator>
     <cc:Agent>
      <dc:title>Matplotlib v3.3.3, https://matplotlib.org/</dc:title>
     </cc:Agent>
    </dc:creator>
   </cc:Work>
  </rdf:RDF>
 </metadata>
 <defs>
  <style type="text/css">*{stroke-linecap:butt;stroke-linejoin:round;}</style>
 </defs>
 <g id="figure_1">
  <g id="patch_1">
   <path d="M 0 133.540344 
L 174.24625 133.540344 
L 174.24625 0 
L 0 0 
z
" style="fill:none;"/>
  </g>
  <g id="axes_1">
   <g id="patch_2">
    <path d="M 38.70625 96.810656 
L 167.04625 96.810656 
L 167.04625 9.834656 
L 38.70625 9.834656 
z
" style="fill:none;"/>
   </g>
   <g id="PolyCollection_1">
    <path clip-path="url(#p7b80cdc57b)" d="M 50.181382 81.085151 
L 49.505002 81.085151 
L 49.474462 80.719381 
L 49.44367 80.353612 
L 49.412361 79.987842 
L 49.380056 79.622072 
L 49.346058 79.256302 
L 49.309451 78.890532 
L 49.269117 78.524763 
L 49.223767 78.158993 
L 49.171988 77.793223 
L 49.112301 77.427453 
L 49.043239 77.061684 
L 48.963433 76.695914 
L 48.871714 76.330144 
L 48.767209 75.964374 
L 48.649451 75.598604 
L 48.518459 75.232835 
L 48.374814 74.867065 
L 48.219691 74.501295 
L 48.054852 74.135525 
L 47.882594 73.769756 
L 47.705638 73.403986 
L 47.526974 73.038216 
L 47.349663 72.672446 
L 47.176617 72.306676 
L 47.010369 71.940907 
L 46.852872 71.575137 
L 46.705339 71.209367 
L 46.568143 70.843597 
L 46.440817 70.477827 
L 46.322125 70.112058 
L 46.210231 69.746288 
L 46.102937 69.380518 
L 45.997961 69.014748 
L 45.893232 68.648979 
L 45.787162 68.283209 
L 45.678851 67.917439 
L 45.568218 67.551669 
L 45.456017 67.185899 
L 45.343751 66.82013 
L 45.233488 66.45436 
L 45.127607 66.08859 
L 45.028503 65.72282 
L 44.938302 65.357051 
L 44.858608 64.991281 
L 44.790328 64.625511 
L 44.733593 64.259741 
L 44.687782 63.893971 
L 44.651644 63.528202 
L 44.623503 63.162432 
L 44.601519 62.796662 
L 44.583966 62.430892 
L 44.569503 62.065123 
L 44.557403 61.699353 
L 44.547706 61.333583 
L 44.541298 60.967813 
L 44.539886 60.602043 
L 44.545894 60.236274 
L 44.562267 59.870504 
L 44.592233 59.504734 
L 44.639012 59.138964 
L 44.705534 58.773194 
L 44.794168 58.407425 
L 44.906505 58.041655 
L 45.043203 57.675885 
L 45.203913 57.310115 
L 45.387279 56.944346 
L 45.591023 56.578576 
L 45.812079 56.212806 
L 46.046783 55.847036 
L 46.291074 55.481266 
L 46.540709 55.115497 
L 46.791456 54.749727 
L 47.03927 54.383957 
L 47.280433 54.018187 
L 47.511665 53.652418 
L 47.7302 53.286648 
L 47.933846 52.920878 
L 48.12101 52.555108 
L 48.29071 52.189338 
L 48.44257 51.823569 
L 48.576787 51.457799 
L 48.69409 51.092029 
L 48.795661 50.726259 
L 48.883052 50.36049 
L 48.958072 49.99472 
L 49.022668 49.62895 
L 49.078811 49.26318 
L 49.128378 48.89741 
L 49.173058 48.531641 
L 49.214289 48.165871 
L 49.253212 47.800101 
L 49.290667 47.434331 
L 49.327209 47.068561 
L 49.363148 46.702792 
L 49.398599 46.337022 
L 49.433537 45.971252 
L 49.467847 45.605482 
L 49.501367 45.239713 
L 49.533917 44.873943 
L 50.152467 44.873943 
L 50.152467 44.873943 
L 50.185017 45.239713 
L 50.218537 45.605482 
L 50.252847 45.971252 
L 50.287785 46.337022 
L 50.323236 46.702792 
L 50.359176 47.068561 
L 50.395718 47.434331 
L 50.433172 47.800101 
L 50.472095 48.165871 
L 50.513326 48.531641 
L 50.558006 48.89741 
L 50.607573 49.26318 
L 50.663716 49.62895 
L 50.728313 49.99472 
L 50.803332 50.36049 
L 50.890723 50.726259 
L 50.992294 51.092029 
L 51.109597 51.457799 
L 51.243815 51.823569 
L 51.395674 52.189338 
L 51.565374 52.555108 
L 51.752538 52.920878 
L 51.956184 53.286648 
L 52.17472 53.652418 
L 52.405951 54.018187 
L 52.647114 54.383957 
L 52.894928 54.749727 
L 53.145675 55.115497 
L 53.39531 55.481266 
L 53.639602 55.847036 
L 53.874305 56.212806 
L 54.095362 56.578576 
L 54.299105 56.944346 
L 54.482472 57.310115 
L 54.643181 57.675885 
L 54.77988 58.041655 
L 54.892216 58.407425 
L 54.98085 58.773194 
L 55.047372 59.138964 
L 55.094151 59.504734 
L 55.124117 59.870504 
L 55.140491 60.236274 
L 55.146498 60.602043 
L 55.145086 60.967813 
L 55.138678 61.333583 
L 55.128981 61.699353 
L 55.116881 62.065123 
L 55.102419 62.430892 
L 55.084865 62.796662 
L 55.062881 63.162432 
L 55.034741 63.528202 
L 54.998602 63.893971 
L 54.952791 64.259741 
L 54.896056 64.625511 
L 54.827776 64.991281 
L 54.748082 65.357051 
L 54.657881 65.72282 
L 54.558778 66.08859 
L 54.452896 66.45436 
L 54.342633 66.82013 
L 54.230367 67.185899 
L 54.118166 67.551669 
L 54.007534 67.917439 
L 53.899223 68.283209 
L 53.793152 68.648979 
L 53.688423 69.014748 
L 53.583447 69.380518 
L 53.476153 69.746288 
L 53.36426 70.112058 
L 53.245567 70.477827 
L 53.118241 70.843597 
L 52.981046 71.209367 
L 52.833512 71.575137 
L 52.676016 71.940907 
L 52.509768 72.306676 
L 52.336721 72.672446 
L 52.15941 73.038216 
L 51.980746 73.403986 
L 51.80379 73.769756 
L 51.631532 74.135525 
L 51.466693 74.501295 
L 51.31157 74.867065 
L 51.167925 75.232835 
L 51.036933 75.598604 
L 50.919175 75.964374 
L 50.814671 76.330144 
L 50.722951 76.695914 
L 50.643146 77.061684 
L 50.574083 77.427453 
L 50.514396 77.793223 
L 50.462617 78.158993 
L 50.417267 78.524763 
L 50.376933 78.890532 
L 50.340326 79.256302 
L 50.306328 79.622072 
L 50.274023 79.987842 
L 50.242714 80.353612 
L 50.211922 80.719381 
L 50.181382 81.085151 
z
" style="fill:#1f77b4;fill-opacity:0.3;"/>
   </g>
   <g id="PolyCollection_2">
    <path clip-path="url(#p7b80cdc57b)" d="M 71.389456 81.126583 
L 70.723374 81.126583 
L 70.688411 80.761799 
L 70.651814 80.397014 
L 70.613506 80.032229 
L 70.573358 79.667445 
L 70.531168 79.30266 
L 70.486659 78.937875 
L 70.439466 78.573091 
L 70.389125 78.208306 
L 70.335067 77.843521 
L 70.276619 77.478737 
L 70.213011 77.113952 
L 70.143392 76.749168 
L 70.066856 76.384383 
L 69.982483 76.019598 
L 69.889381 75.654814 
L 69.786742 75.290029 
L 69.673901 74.925244 
L 69.550391 74.56046 
L 69.415995 74.195675 
L 69.270795 73.83089 
L 69.115204 73.466106 
L 68.949989 73.101321 
L 68.776278 72.736536 
L 68.595552 72.371752 
L 68.409621 72.006967 
L 68.220588 71.642183 
L 68.030796 71.277398 
L 67.84276 70.912613 
L 67.659088 70.547829 
L 67.482388 70.183044 
L 67.315161 69.818259 
L 67.159687 69.453475 
L 67.017903 69.08869 
L 66.891285 68.723905 
L 66.780737 68.359121 
L 66.686503 67.994336 
L 66.608112 67.629552 
L 66.544357 67.264767 
L 66.49334 66.899982 
L 66.452567 66.535198 
L 66.419092 66.170413 
L 66.389728 65.805628 
L 66.36128 65.440844 
L 66.330805 65.076059 
L 66.295861 64.711274 
L 66.254731 64.34649 
L 66.206592 63.981705 
L 66.151611 63.61692 
L 66.09096 63.252136 
L 66.026746 62.887351 
L 65.96186 62.522567 
L 65.899755 62.157782 
L 65.84419 61.792997 
L 65.798952 61.428213 
L 65.767575 61.063428 
L 65.75311 60.698643 
L 65.75792 60.333859 
L 65.783563 59.969074 
L 65.830716 59.604289 
L 65.899186 59.239505 
L 65.987967 58.87472 
L 66.095352 58.509936 
L 66.21907 58.145151 
L 66.356459 57.780366 
L 66.504639 57.415582 
L 66.66068 57.050797 
L 66.82177 56.686012 
L 66.985352 56.321228 
L 67.149242 55.956443 
L 67.311708 55.591658 
L 67.471521 55.226874 
L 67.627957 54.862089 
L 67.780769 54.497304 
L 67.930117 54.13252 
L 68.07647 53.767735 
L 68.220488 53.402951 
L 68.362888 53.038166 
L 68.504324 52.673381 
L 68.645269 52.308597 
L 68.785937 51.943812 
L 68.926233 51.579027 
L 69.065741 51.214243 
L 69.203754 50.849458 
L 69.339337 50.484673 
L 69.471412 50.119889 
L 69.598855 49.755104 
L 69.720604 49.39032 
L 69.835741 49.025535 
L 69.94357 48.66075 
L 70.043662 48.295966 
L 70.13587 47.931181 
L 70.220321 47.566396 
L 70.297381 47.201612 
L 70.367602 46.836827 
L 70.431662 46.472042 
L 70.490293 46.107258 
L 70.544221 45.742473 
L 70.594116 45.377688 
L 70.640546 45.012904 
L 71.472285 45.012904 
L 71.472285 45.012904 
L 71.518715 45.377688 
L 71.56861 45.742473 
L 71.622538 46.107258 
L 71.681169 46.472042 
L 71.745228 46.836827 
L 71.81545 47.201612 
L 71.89251 47.566396 
L 71.976961 47.931181 
L 72.069169 48.295966 
L 72.169261 48.66075 
L 72.27709 49.025535 
L 72.392227 49.39032 
L 72.513975 49.755104 
L 72.641419 50.119889 
L 72.773493 50.484673 
L 72.909076 50.849458 
L 73.04709 51.214243 
L 73.186598 51.579027 
L 73.326893 51.943812 
L 73.467562 52.308597 
L 73.608507 52.673381 
L 73.749942 53.038166 
L 73.892343 53.402951 
L 74.03636 53.767735 
L 74.182714 54.13252 
L 74.332062 54.497304 
L 74.484874 54.862089 
L 74.64131 55.226874 
L 74.801122 55.591658 
L 74.963589 55.956443 
L 75.127478 56.321228 
L 75.29106 56.686012 
L 75.45215 57.050797 
L 75.608192 57.415582 
L 75.756371 57.780366 
L 75.893761 58.145151 
L 76.017479 58.509936 
L 76.124863 58.87472 
L 76.213645 59.239505 
L 76.282115 59.604289 
L 76.329268 59.969074 
L 76.35491 60.333859 
L 76.359721 60.698643 
L 76.345255 61.063428 
L 76.313879 61.428213 
L 76.26864 61.792997 
L 76.213076 62.157782 
L 76.150971 62.522567 
L 76.086084 62.887351 
L 76.021871 63.252136 
L 75.96122 63.61692 
L 75.906239 63.981705 
L 75.858099 64.34649 
L 75.81697 64.711274 
L 75.782026 65.076059 
L 75.751551 65.440844 
L 75.723103 65.805628 
L 75.693739 66.170413 
L 75.660264 66.535198 
L 75.61949 66.899982 
L 75.568474 67.264767 
L 75.504719 67.629552 
L 75.426327 67.994336 
L 75.332094 68.359121 
L 75.221546 68.723905 
L 75.094927 69.08869 
L 74.953144 69.453475 
L 74.79767 69.818259 
L 74.630443 70.183044 
L 74.453743 70.547829 
L 74.270071 70.912613 
L 74.082035 71.277398 
L 73.892242 71.642183 
L 73.70321 72.006967 
L 73.517279 72.371752 
L 73.336553 72.736536 
L 73.162842 73.101321 
L 72.997627 73.466106 
L 72.842036 73.83089 
L 72.696836 74.195675 
L 72.56244 74.56046 
L 72.438929 74.925244 
L 72.326089 75.290029 
L 72.22345 75.654814 
L 72.130348 76.019598 
L 72.045974 76.384383 
L 71.969439 76.749168 
L 71.899819 77.113952 
L 71.836211 77.478737 
L 71.777764 77.843521 
L 71.723705 78.208306 
L 71.673364 78.573091 
L 71.626171 78.937875 
L 71.581663 79.30266 
L 71.539473 79.667445 
L 71.499324 80.032229 
L 71.461017 80.397014 
L 71.424419 80.761799 
L 71.389456 81.126583 
z
" style="fill:#1f77b4;fill-opacity:0.3;"/>
   </g>
   <g id="PolyCollection_3">
    <path clip-path="url(#p7b80cdc57b)" d="M 92.523557 89.684861 
L 92.015719 89.684861 
L 92.005357 89.185552 
L 91.998154 88.686242 
L 91.993916 88.186933 
L 91.992159 87.687623 
L 91.992131 87.188313 
L 91.992846 86.689004 
L 91.993142 86.189694 
L 91.99175 85.690385 
L 91.987375 85.191075 
L 91.978767 84.691765 
L 91.964787 84.192456 
L 91.944457 83.693146 
L 91.916987 83.193837 
L 91.881787 82.694527 
L 91.838454 82.195218 
L 91.786749 81.695908 
L 91.726564 81.196598 
L 91.657886 80.697289 
L 91.58077 80.197979 
L 91.495323 79.69867 
L 91.401698 79.19936 
L 91.300115 78.70005 
L 91.19088 78.200741 
L 91.074429 77.701431 
L 90.951358 77.202122 
L 90.822455 76.702812 
L 90.68871 76.203502 
L 90.551296 75.704193 
L 90.411534 75.204883 
L 90.270807 74.705574 
L 90.130472 74.206264 
L 89.991737 73.706955 
L 89.855548 73.207645 
L 89.722485 72.708335 
L 89.592692 72.209026 
L 89.465846 71.709716 
L 89.341189 71.210407 
L 89.217605 70.711097 
L 89.093756 70.211787 
L 88.968248 69.712478 
L 88.839815 69.213168 
L 88.707497 68.713859 
L 88.57079 68.214549 
L 88.429746 67.715239 
L 88.285017 67.21593 
L 88.137842 66.71662 
L 87.989971 66.217311 
L 87.843554 65.718001 
L 87.701 65.218692 
L 87.564838 64.719382 
L 87.437581 64.220072 
L 87.321616 63.720763 
L 87.219124 63.221453 
L 87.132032 62.722144 
L 87.061986 62.222834 
L 87.010346 61.723524 
L 86.978193 61.224215 
L 86.966333 60.724905 
L 86.975306 60.225596 
L 87.005388 59.726286 
L 87.05659 59.226976 
L 87.128645 58.727667 
L 87.221005 58.228357 
L 87.332827 57.729048 
L 87.462967 57.229738 
L 87.609973 56.730429 
L 87.772093 56.231119 
L 87.947285 55.731809 
L 88.133243 55.2325 
L 88.327442 54.73319 
L 88.527201 54.233881 
L 88.729766 53.734571 
L 88.932409 53.235261 
L 89.132539 52.735952 
L 89.327819 52.236642 
L 89.516274 51.737333 
L 89.696375 51.238023 
L 89.867099 50.738713 
L 90.027951 50.239404 
L 90.178932 49.740094 
L 90.320486 49.240785 
L 90.453388 48.741475 
L 90.578629 48.242166 
L 90.697279 47.742856 
L 90.810359 47.243546 
L 90.918735 46.744237 
L 91.023039 46.244927 
L 91.123635 45.745618 
L 91.220616 45.246308 
L 91.313843 44.746998 
L 91.403008 44.247689 
L 91.487712 43.748379 
L 91.567542 43.24907 
L 91.642149 42.74976 
L 91.711293 42.25045 
L 91.774883 41.751141 
L 91.832973 41.251831 
L 91.885756 40.752522 
L 91.933526 40.253212 
L 92.605751 40.253212 
L 92.605751 40.253212 
L 92.653521 40.752522 
L 92.706304 41.251831 
L 92.764394 41.751141 
L 92.827984 42.25045 
L 92.897128 42.74976 
L 92.971735 43.24907 
L 93.051565 43.748379 
L 93.136269 44.247689 
L 93.225434 44.746998 
L 93.318661 45.246308 
L 93.415642 45.745618 
L 93.516237 46.244927 
L 93.620542 46.744237 
L 93.728918 47.243546 
L 93.841998 47.742856 
L 93.960648 48.242166 
L 94.085889 48.741475 
L 94.218791 49.240785 
L 94.360344 49.740094 
L 94.511326 50.239404 
L 94.672178 50.738713 
L 94.842902 51.238023 
L 95.023003 51.737333 
L 95.211458 52.236642 
L 95.406738 52.735952 
L 95.606868 53.235261 
L 95.80951 53.734571 
L 96.012075 54.233881 
L 96.211835 54.73319 
L 96.406034 55.2325 
L 96.591992 55.731809 
L 96.767184 56.231119 
L 96.929304 56.730429 
L 97.07631 57.229738 
L 97.206449 57.729048 
L 97.318272 58.228357 
L 97.410632 58.727667 
L 97.482687 59.226976 
L 97.533889 59.726286 
L 97.563971 60.225596 
L 97.572944 60.724905 
L 97.561084 61.224215 
L 97.52893 61.723524 
L 97.477291 62.222834 
L 97.407245 62.722144 
L 97.320153 63.221453 
L 97.217661 63.720763 
L 97.101696 64.220072 
L 96.974439 64.719382 
L 96.838277 65.218692 
L 96.695723 65.718001 
L 96.549306 66.217311 
L 96.401435 66.71662 
L 96.25426 67.21593 
L 96.109531 67.715239 
L 95.968487 68.214549 
L 95.83178 68.713859 
L 95.699462 69.213168 
L 95.571029 69.712478 
L 95.445521 70.211787 
L 95.321672 70.711097 
L 95.198088 71.210407 
L 95.073431 71.709716 
L 94.946585 72.209026 
L 94.816792 72.708335 
L 94.683729 73.207645 
L 94.54754 73.706955 
L 94.408805 74.206264 
L 94.26847 74.705574 
L 94.127743 75.204883 
L 93.98798 75.704193 
L 93.850567 76.203502 
L 93.716822 76.702812 
L 93.587919 77.202122 
L 93.464848 77.701431 
L 93.348397 78.200741 
L 93.239162 78.70005 
L 93.137578 79.19936 
L 93.043954 79.69867 
L 92.958507 80.197979 
L 92.881391 80.697289 
L 92.812713 81.196598 
L 92.752528 81.695908 
L 92.700823 82.195218 
L 92.65749 82.694527 
L 92.62229 83.193837 
L 92.59482 83.693146 
L 92.57449 84.192456 
L 92.56051 84.691765 
L 92.551902 85.191075 
L 92.547527 85.690385 
L 92.546135 86.189694 
L 92.546431 86.689004 
L 92.547146 87.188313 
L 92.547118 87.687623 
L 92.545361 88.186933 
L 92.541122 88.686242 
L 92.53392 89.185552 
L 92.523557 89.684861 
z
" style="fill:#1f77b4;fill-opacity:0.3;"/>
   </g>
   <g id="PolyCollection_4">
    <path clip-path="url(#p7b80cdc57b)" d="M 114.1455 84.621957 
L 112.820224 84.621957 
L 112.744131 84.072462 
L 112.665437 83.522968 
L 112.584719 82.973473 
L 112.502486 82.423979 
L 112.419122 81.874484 
L 112.334831 81.32499 
L 112.249593 80.775495 
L 112.163125 80.226001 
L 112.074864 79.676506 
L 111.98397 79.127012 
L 111.889354 78.577517 
L 111.789729 78.028023 
L 111.683689 77.478528 
L 111.569804 76.929034 
L 111.446731 76.379539 
L 111.313333 75.830045 
L 111.168793 75.280551 
L 111.012717 74.731056 
L 110.845217 74.181562 
L 110.666966 73.632067 
L 110.479214 73.082573 
L 110.283777 72.533078 
L 110.082974 71.983584 
L 109.879541 71.434089 
L 109.676513 70.884595 
L 109.477084 70.3351 
L 109.284455 69.785606 
L 109.101684 69.236111 
L 108.931543 68.686617 
L 108.776399 68.137122 
L 108.638116 67.587628 
L 108.517993 67.038133 
L 108.416737 66.488639 
L 108.334474 65.939144 
L 108.270794 65.38965 
L 108.224819 64.840155 
L 108.195308 64.290661 
L 108.180763 63.741166 
L 108.179556 63.191672 
L 108.190045 62.642177 
L 108.210691 62.092683 
L 108.24015 61.543188 
L 108.277354 60.993694 
L 108.321556 60.444199 
L 108.372359 59.894705 
L 108.429707 59.34521 
L 108.493849 58.795716 
L 108.56529 58.246221 
L 108.644704 57.696727 
L 108.732845 57.147232 
L 108.830452 56.597738 
L 108.938138 56.048244 
L 109.056304 55.498749 
L 109.185053 54.949255 
L 109.324129 54.39976 
L 109.472883 53.850266 
L 109.630257 53.300771 
L 109.794806 52.751277 
L 109.964742 52.201782 
L 110.138 51.652288 
L 110.312332 51.102793 
L 110.485402 50.553299 
L 110.654898 50.003804 
L 110.818631 49.45431 
L 110.974633 48.904815 
L 111.12124 48.355321 
L 111.257147 47.805826 
L 111.381447 47.256332 
L 111.49365 46.706837 
L 111.593666 46.157343 
L 111.681782 45.607848 
L 111.758614 45.058354 
L 111.825053 44.508859 
L 111.882198 43.959365 
L 111.931294 43.40987 
L 111.973671 42.860376 
L 112.01068 42.310881 
L 112.043651 41.761387 
L 112.073849 41.211892 
L 112.102442 40.662398 
L 112.130479 40.112903 
L 112.158874 39.563409 
L 112.188396 39.013914 
L 112.219667 38.46442 
L 112.253162 37.914925 
L 112.289211 37.365431 
L 112.328007 36.815937 
L 112.369614 36.266442 
L 112.413979 35.716948 
L 112.460946 35.167453 
L 112.51027 34.617959 
L 112.56163 34.068464 
L 112.614649 33.51897 
L 112.668908 32.969475 
L 112.72396 32.419981 
L 112.77934 31.870486 
L 112.834585 31.320992 
L 112.889233 30.771497 
L 112.942841 30.222003 
L 114.022882 30.222003 
L 114.022882 30.222003 
L 114.07649 30.771497 
L 114.131139 31.320992 
L 114.186383 31.870486 
L 114.241764 32.419981 
L 114.296815 32.969475 
L 114.351074 33.51897 
L 114.404093 34.068464 
L 114.455453 34.617959 
L 114.504777 35.167453 
L 114.551744 35.716948 
L 114.596109 36.266442 
L 114.637716 36.815937 
L 114.676512 37.365431 
L 114.712561 37.914925 
L 114.746056 38.46442 
L 114.777328 39.013914 
L 114.80685 39.563409 
L 114.835244 40.112903 
L 114.863281 40.662398 
L 114.891874 41.211892 
L 114.922072 41.761387 
L 114.955043 42.310881 
L 114.992052 42.860376 
L 115.034429 43.40987 
L 115.083525 43.959365 
L 115.14067 44.508859 
L 115.207109 45.058354 
L 115.283941 45.607848 
L 115.372057 46.157343 
L 115.472073 46.706837 
L 115.584276 47.256332 
L 115.708577 47.805826 
L 115.844483 48.355321 
L 115.99109 48.904815 
L 116.147093 49.45431 
L 116.310825 50.003804 
L 116.480321 50.553299 
L 116.653391 51.102793 
L 116.827723 51.652288 
L 117.000981 52.201782 
L 117.170917 52.751277 
L 117.335466 53.300771 
L 117.49284 53.850266 
L 117.641594 54.39976 
L 117.780671 54.949255 
L 117.909419 55.498749 
L 118.027585 56.048244 
L 118.135271 56.597738 
L 118.232878 57.147232 
L 118.32102 57.696727 
L 118.400433 58.246221 
L 118.471874 58.795716 
L 118.536017 59.34521 
L 118.593364 59.894705 
L 118.644167 60.444199 
L 118.68837 60.993694 
L 118.725573 61.543188 
L 118.755032 62.092683 
L 118.775678 62.642177 
L 118.786167 63.191672 
L 118.78496 63.741166 
L 118.770415 64.290661 
L 118.740904 64.840155 
L 118.694929 65.38965 
L 118.631249 65.939144 
L 118.548986 66.488639 
L 118.44773 67.038133 
L 118.327607 67.587628 
L 118.189324 68.137122 
L 118.03418 68.686617 
L 117.86404 69.236111 
L 117.681268 69.785606 
L 117.488639 70.3351 
L 117.28921 70.884595 
L 117.086182 71.434089 
L 116.882749 71.983584 
L 116.681946 72.533078 
L 116.486509 73.082573 
L 116.298758 73.632067 
L 116.120506 74.181562 
L 115.953006 74.731056 
L 115.79693 75.280551 
L 115.65239 75.830045 
L 115.518992 76.379539 
L 115.39592 76.929034 
L 115.282035 77.478528 
L 115.175995 78.028023 
L 115.07637 78.577517 
L 114.981753 79.127012 
L 114.890859 79.676506 
L 114.802598 80.226001 
L 114.71613 80.775495 
L 114.630892 81.32499 
L 114.546601 81.874484 
L 114.463237 82.423979 
L 114.381004 82.973473 
L 114.300286 83.522968 
L 114.221592 84.072462 
L 114.1455 84.621957 
z
" style="fill:#1f77b4;fill-opacity:0.3;"/>
   </g>
   <g id="PolyCollection_5">
    <path clip-path="url(#p7b80cdc57b)" d="M 135.304238 90.506493 
L 134.087931 90.506493 
L 134.030524 89.895018 
L 133.970757 89.283542 
L 133.908547 88.672067 
L 133.843821 88.060592 
L 133.77655 87.449116 
L 133.70678 86.837641 
L 133.634655 86.226165 
L 133.560441 85.61469 
L 133.484529 85.003215 
L 133.407434 84.391739 
L 133.329774 83.780264 
L 133.252243 83.168789 
L 133.175571 82.557313 
L 133.100476 81.945838 
L 133.027611 81.334363 
L 132.957507 80.722887 
L 132.890528 80.111412 
L 132.826814 79.499937 
L 132.766249 78.888461 
L 132.708425 78.276986 
L 132.65263 77.66551 
L 132.597844 77.054035 
L 132.542761 76.44256 
L 132.485824 75.831084 
L 132.425284 75.219609 
L 132.359282 74.608134 
L 132.28594 73.996658 
L 132.203477 73.385183 
L 132.110322 72.773708 
L 132.005233 72.162232 
L 131.8874 71.550757 
L 131.756534 70.939281 
L 131.612929 70.327806 
L 131.457486 69.716331 
L 131.291708 69.104855 
L 131.117651 68.49338 
L 130.937848 67.881905 
L 130.755203 67.270429 
L 130.57287 66.658954 
L 130.394117 66.047479 
L 130.222199 65.436003 
L 130.060238 64.824528 
L 129.911123 64.213053 
L 129.777424 63.601577 
L 129.66134 62.990102 
L 129.564661 62.378626 
L 129.488746 61.767151 
L 129.434527 61.155676 
L 129.402507 60.5442 
L 129.392779 59.932725 
L 129.405039 59.32125 
L 129.438608 58.709774 
L 129.492449 58.098299 
L 129.565201 57.486824 
L 129.65521 56.875348 
L 129.760571 56.263873 
L 129.879185 55.652397 
L 130.008815 55.040922 
L 130.147159 54.429447 
L 130.291919 53.817971 
L 130.440873 53.206496 
L 130.59194 52.595021 
L 130.743237 51.983545 
L 130.893115 51.37207 
L 131.040191 50.760595 
L 131.183351 50.149119 
L 131.321755 49.537644 
L 131.454815 48.926169 
L 131.582181 48.314693 
L 131.703718 47.703218 
L 131.819484 47.091742 
L 131.929715 46.480267 
L 132.03481 45.868792 
L 132.135323 45.257316 
L 132.231947 44.645841 
L 132.325497 44.034366 
L 132.416886 43.42289 
L 132.507084 42.811415 
L 132.597072 42.19994 
L 132.687779 41.588464 
L 132.780018 40.976989 
L 132.87442 40.365513 
L 132.971375 39.754038 
L 133.070986 39.142563 
L 133.17305 38.531087 
L 133.277055 37.919612 
L 133.382209 37.308137 
L 133.487495 36.696661 
L 133.591741 36.085186 
L 133.693706 35.473711 
L 133.792166 34.862235 
L 133.886002 34.25076 
L 133.974267 33.639285 
L 134.05624 33.027809 
L 134.131455 32.416334 
L 134.199705 31.804858 
L 134.261028 31.193383 
L 134.315675 30.581908 
L 134.364061 29.970432 
L 135.028108 29.970432 
L 135.028108 29.970432 
L 135.076494 30.581908 
L 135.131141 31.193383 
L 135.192465 31.804858 
L 135.260715 32.416334 
L 135.335929 33.027809 
L 135.417902 33.639285 
L 135.506167 34.25076 
L 135.600003 34.862235 
L 135.698464 35.473711 
L 135.800428 36.085186 
L 135.904675 36.696661 
L 136.009961 37.308137 
L 136.115115 37.919612 
L 136.219119 38.531087 
L 136.321183 39.142563 
L 136.420795 39.754038 
L 136.517749 40.365513 
L 136.612152 40.976989 
L 136.704391 41.588464 
L 136.795097 42.19994 
L 136.885085 42.811415 
L 136.975283 43.42289 
L 137.066672 44.034366 
L 137.160223 44.645841 
L 137.256846 45.257316 
L 137.357359 45.868792 
L 137.462455 46.480267 
L 137.572686 47.091742 
L 137.688451 47.703218 
L 137.809988 48.314693 
L 137.937355 48.926169 
L 138.070415 49.537644 
L 138.208818 50.149119 
L 138.351979 50.760595 
L 138.499054 51.37207 
L 138.648932 51.983545 
L 138.800229 52.595021 
L 138.951297 53.206496 
L 139.100251 53.817971 
L 139.24501 54.429447 
L 139.383354 55.040922 
L 139.512984 55.652397 
L 139.631598 56.263873 
L 139.73696 56.875348 
L 139.826969 57.486824 
L 139.899721 58.098299 
L 139.953562 58.709774 
L 139.98713 59.32125 
L 139.99939 59.932725 
L 139.989663 60.5442 
L 139.957643 61.155676 
L 139.903423 61.767151 
L 139.827508 62.378626 
L 139.730829 62.990102 
L 139.614746 63.601577 
L 139.481047 64.213053 
L 139.331931 64.824528 
L 139.169971 65.436003 
L 138.998052 66.047479 
L 138.819299 66.658954 
L 138.636966 67.270429 
L 138.454322 67.881905 
L 138.274519 68.49338 
L 138.100462 69.104855 
L 137.934683 69.716331 
L 137.779241 70.327806 
L 137.635635 70.939281 
L 137.50477 71.550757 
L 137.386937 72.162232 
L 137.281847 72.773708 
L 137.188693 73.385183 
L 137.10623 73.996658 
L 137.032888 74.608134 
L 136.966885 75.219609 
L 136.906346 75.831084 
L 136.849408 76.44256 
L 136.794325 77.054035 
L 136.73954 77.66551 
L 136.683744 78.276986 
L 136.62592 78.888461 
L 136.565355 79.499937 
L 136.501642 80.111412 
L 136.434662 80.722887 
L 136.364559 81.334363 
L 136.291693 81.945838 
L 136.216598 82.557313 
L 136.139927 83.168789 
L 136.062396 83.780264 
L 135.984735 84.391739 
L 135.90764 85.003215 
L 135.831728 85.61469 
L 135.757514 86.226165 
L 135.68539 86.837641 
L 135.615619 87.449116 
L 135.548348 88.060592 
L 135.483622 88.672067 
L 135.421412 89.283542 
L 135.361646 89.895018 
L 135.304238 90.506493 
z
" style="fill:#1f77b4;fill-opacity:0.3;"/>
   </g>
   <g id="PolyCollection_6">
    <path clip-path="url(#p7b80cdc57b)" d="M 156.652394 92.857202 
L 155.166222 92.857202 
L 155.07968 92.058524 
L 154.98694 91.259846 
L 154.887751 90.461169 
L 154.781912 89.662491 
L 154.669313 88.863813 
L 154.549971 88.065136 
L 154.424072 87.266458 
L 154.291996 86.46778 
L 154.15434 85.669103 
L 154.011918 84.870425 
L 153.865754 84.071747 
L 153.717062 83.273069 
L 153.567209 82.474392 
L 153.417674 81.675714 
L 153.269995 80.877036 
L 153.125719 80.078359 
L 152.986341 79.279681 
L 152.85325 78.481003 
L 152.727673 77.682326 
L 152.610618 76.883648 
L 152.502819 76.08497 
L 152.404691 75.286293 
L 152.316284 74.487615 
L 152.237252 73.688937 
L 152.166833 72.89026 
L 152.103854 72.091582 
L 152.046757 71.292904 
L 151.993652 70.494226 
L 151.942408 69.695549 
L 151.890766 68.896871 
L 151.836477 68.098193 
L 151.77746 67.299516 
L 151.71197 66.500838 
L 151.638747 65.70216 
L 151.557158 64.903483 
L 151.467299 64.104805 
L 151.370051 63.306127 
L 151.267086 62.50745 
L 151.160816 61.708772 
L 151.054285 60.910094 
L 150.951015 60.111417 
L 150.854813 59.312739 
L 150.769556 58.514061 
L 150.698968 57.715384 
L 150.646414 56.916706 
L 150.614714 56.118028 
L 150.606002 55.31935 
L 150.621632 54.520673 
L 150.662142 53.721995 
L 150.727263 52.923317 
L 150.815986 52.12464 
L 150.926656 51.325962 
L 151.057102 50.527284 
L 151.204777 49.728607 
L 151.366897 48.929929 
L 151.540574 48.131251 
L 151.722928 47.332574 
L 151.911181 46.533896 
L 152.102723 45.735218 
L 152.295157 44.936541 
L 152.486322 44.137863 
L 152.674309 43.339185 
L 152.857459 42.540507 
L 153.034361 41.74183 
L 153.203851 40.943152 
L 153.365002 40.144474 
L 153.517127 39.345797 
L 153.659773 38.547119 
L 153.792717 37.748441 
L 153.915954 36.949764 
L 154.029683 36.151086 
L 154.134285 35.352408 
L 154.230289 34.553731 
L 154.318343 33.755053 
L 154.399169 32.956375 
L 154.473529 32.157698 
L 154.542186 31.35902 
L 154.605875 30.560342 
L 154.66528 29.761665 
L 154.721018 28.962987 
L 154.773634 28.164309 
L 154.823606 27.365631 
L 154.871348 26.566954 
L 154.917223 25.768276 
L 154.961552 24.969598 
L 155.004625 24.170921 
L 155.046707 23.372243 
L 155.088041 22.573565 
L 155.128843 21.774888 
L 155.169301 20.97621 
L 155.209565 20.177532 
L 155.249741 19.378855 
L 155.289886 18.580177 
L 155.329997 17.781499 
L 155.370018 16.982822 
L 155.409838 16.184144 
L 155.449296 15.385466 
L 155.488188 14.586788 
L 155.526284 13.788111 
L 156.292331 13.788111 
L 156.292331 13.788111 
L 156.330427 14.586788 
L 156.36932 15.385466 
L 156.408777 16.184144 
L 156.448597 16.982822 
L 156.488619 17.781499 
L 156.52873 18.580177 
L 156.568874 19.378855 
L 156.609051 20.177532 
L 156.649315 20.97621 
L 156.689773 21.774888 
L 156.730575 22.573565 
L 156.771909 23.372243 
L 156.813991 24.170921 
L 156.857064 24.969598 
L 156.901393 25.768276 
L 156.947267 26.566954 
L 156.995009 27.365631 
L 157.044982 28.164309 
L 157.097598 28.962987 
L 157.153336 29.761665 
L 157.21274 30.560342 
L 157.27643 31.35902 
L 157.345087 32.157698 
L 157.419447 32.956375 
L 157.500273 33.755053 
L 157.588326 34.553731 
L 157.684331 35.352408 
L 157.788933 36.151086 
L 157.902662 36.949764 
L 158.025899 37.748441 
L 158.158843 38.547119 
L 158.301489 39.345797 
L 158.453614 40.144474 
L 158.614765 40.943152 
L 158.784254 41.74183 
L 158.961157 42.540507 
L 159.144307 43.339185 
L 159.332294 44.137863 
L 159.523459 44.936541 
L 159.715892 45.735218 
L 159.907434 46.533896 
L 160.095688 47.332574 
L 160.278042 48.131251 
L 160.451718 48.929929 
L 160.613839 49.728607 
L 160.761514 50.527284 
L 160.89196 51.325962 
L 161.00263 52.12464 
L 161.091352 52.923317 
L 161.156474 53.721995 
L 161.196983 54.520673 
L 161.212614 55.31935 
L 161.203901 56.118028 
L 161.172201 56.916706 
L 161.119648 57.715384 
L 161.04906 58.514061 
L 160.963802 59.312739 
L 160.8676 60.111417 
L 160.76433 60.910094 
L 160.657799 61.708772 
L 160.551529 62.50745 
L 160.448565 63.306127 
L 160.351316 64.104805 
L 160.261457 64.903483 
L 160.179869 65.70216 
L 160.106646 66.500838 
L 160.041155 67.299516 
L 159.982139 68.098193 
L 159.92785 68.896871 
L 159.876207 69.695549 
L 159.824964 70.494226 
L 159.771859 71.292904 
L 159.714761 72.091582 
L 159.651782 72.89026 
L 159.581364 73.688937 
L 159.502331 74.487615 
L 159.413925 75.286293 
L 159.315797 76.08497 
L 159.207998 76.883648 
L 159.090942 77.682326 
L 158.965366 78.481003 
L 158.832275 79.279681 
L 158.692897 80.078359 
L 158.548621 80.877036 
L 158.400942 81.675714 
L 158.251407 82.474392 
L 158.101554 83.273069 
L 157.952862 84.071747 
L 157.806698 84.870425 
L 157.664276 85.669103 
L 157.526619 86.46778 
L 157.394544 87.266458 
L 157.268645 88.065136 
L 157.149303 88.863813 
L 157.036703 89.662491 
L 156.930865 90.461169 
L 156.831676 91.259846 
L 156.738936 92.058524 
L 156.652394 92.857202 
z
" style="fill:#1f77b4;fill-opacity:0.3;"/>
   </g>
   <g id="matplotlib.axis_1">
    <g id="xtick_1">
     <g id="line2d_1">
      <defs>
       <path d="M 0 0 
L 0 3.5 
" id="md10b629336" style="stroke:#000000;stroke-width:0.8;"/>
      </defs>
      <g>
       <use style="stroke:#000000;stroke-width:0.8;" x="49.843192" xlink:href="#md10b629336" y="96.810656"/>
      </g>
     </g>
     <g id="text_1">
      <!-- 0 -->
      <g transform="translate(47.062723 110.968469)scale(0.1 -0.1)">
       <defs>
        <path d="M 4.15625 35.296875 
Q 4.15625 48 6.765625 55.734375 
Q 9.375 63.484375 14.515625 67.671875 
Q 19.671875 71.875 27.484375 71.875 
Q 33.25 71.875 37.59375 69.546875 
Q 41.9375 67.234375 44.765625 62.859375 
Q 47.609375 58.5 49.21875 52.21875 
Q 50.828125 45.953125 50.828125 35.296875 
Q 50.828125 22.703125 48.234375 14.96875 
Q 45.65625 7.234375 40.5 3 
Q 35.359375 -1.21875 27.484375 -1.21875 
Q 17.140625 -1.21875 11.234375 6.203125 
Q 4.15625 15.140625 4.15625 35.296875 
z
M 13.1875 35.296875 
Q 13.1875 17.671875 17.3125 11.828125 
Q 21.4375 6 27.484375 6 
Q 33.546875 6 37.671875 11.859375 
Q 41.796875 17.71875 41.796875 35.296875 
Q 41.796875 52.984375 37.671875 58.78125 
Q 33.546875 64.59375 27.390625 64.59375 
Q 21.34375 64.59375 17.71875 59.46875 
Q 13.1875 52.9375 13.1875 35.296875 
z
" id="ArialMT-48"/>
       </defs>
       <use xlink:href="#ArialMT-48"/>
      </g>
     </g>
    </g>
    <g id="xtick_2">
     <g id="line2d_2">
      <g>
       <use style="stroke:#000000;stroke-width:0.8;" x="71.056415" xlink:href="#md10b629336" y="96.810656"/>
      </g>
     </g>
     <g id="text_2">
      <!-- 1 -->
      <g transform="translate(68.275947 110.968469)scale(0.1 -0.1)">
       <defs>
        <path d="M 37.25 0 
L 28.46875 0 
L 28.46875 56 
Q 25.296875 52.984375 20.140625 49.953125 
Q 14.984375 46.921875 10.890625 45.40625 
L 10.890625 53.90625 
Q 18.265625 57.375 23.78125 62.296875 
Q 29.296875 67.234375 31.59375 71.875 
L 37.25 71.875 
z
" id="ArialMT-49"/>
       </defs>
       <use xlink:href="#ArialMT-49"/>
      </g>
     </g>
    </g>
    <g id="xtick_3">
     <g id="line2d_3">
      <g>
       <use style="stroke:#000000;stroke-width:0.8;" x="92.269638" xlink:href="#md10b629336" y="96.810656"/>
      </g>
     </g>
     <g id="text_3">
      <!-- 24 -->
      <g transform="translate(86.708701 110.968469)scale(0.1 -0.1)">
       <defs>
        <path d="M 50.34375 8.453125 
L 50.34375 0 
L 3.03125 0 
Q 2.9375 3.171875 4.046875 6.109375 
Q 5.859375 10.9375 9.828125 15.625 
Q 13.8125 20.3125 21.34375 26.46875 
Q 33.015625 36.03125 37.109375 41.625 
Q 41.21875 47.21875 41.21875 52.203125 
Q 41.21875 57.421875 37.46875 61 
Q 33.734375 64.59375 27.734375 64.59375 
Q 21.390625 64.59375 17.578125 60.78125 
Q 13.765625 56.984375 13.71875 50.25 
L 4.6875 51.171875 
Q 5.609375 61.28125 11.65625 66.578125 
Q 17.71875 71.875 27.9375 71.875 
Q 38.234375 71.875 44.234375 66.15625 
Q 50.25 60.453125 50.25 52 
Q 50.25 47.703125 48.484375 43.546875 
Q 46.734375 39.40625 42.65625 34.8125 
Q 38.578125 30.21875 29.109375 22.21875 
Q 21.1875 15.578125 18.9375 13.203125 
Q 16.703125 10.84375 15.234375 8.453125 
z
" id="ArialMT-50"/>
        <path d="M 32.328125 0 
L 32.328125 17.140625 
L 1.265625 17.140625 
L 1.265625 25.203125 
L 33.9375 71.578125 
L 41.109375 71.578125 
L 41.109375 25.203125 
L 50.78125 25.203125 
L 50.78125 17.140625 
L 41.109375 17.140625 
L 41.109375 0 
z
M 32.328125 25.203125 
L 32.328125 57.46875 
L 9.90625 25.203125 
z
" id="ArialMT-52"/>
       </defs>
       <use xlink:href="#ArialMT-50"/>
       <use x="55.615234" xlink:href="#ArialMT-52"/>
      </g>
     </g>
    </g>
    <g id="xtick_4">
     <g id="line2d_4">
      <g>
       <use style="stroke:#000000;stroke-width:0.8;" x="113.482862" xlink:href="#md10b629336" y="96.810656"/>
      </g>
     </g>
     <g id="text_4">
      <!-- 48 -->
      <g transform="translate(107.921924 110.968469)scale(0.1 -0.1)">
       <defs>
        <path d="M 17.671875 38.8125 
Q 12.203125 40.828125 9.5625 44.53125 
Q 6.9375 48.25 6.9375 53.421875 
Q 6.9375 61.234375 12.546875 66.546875 
Q 18.171875 71.875 27.484375 71.875 
Q 36.859375 71.875 42.578125 66.421875 
Q 48.296875 60.984375 48.296875 53.171875 
Q 48.296875 48.1875 45.671875 44.5 
Q 43.0625 40.828125 37.75 38.8125 
Q 44.34375 36.671875 47.78125 31.875 
Q 51.21875 27.09375 51.21875 20.453125 
Q 51.21875 11.28125 44.71875 5.03125 
Q 38.234375 -1.21875 27.640625 -1.21875 
Q 17.046875 -1.21875 10.546875 5.046875 
Q 4.046875 11.328125 4.046875 20.703125 
Q 4.046875 27.6875 7.59375 32.390625 
Q 11.140625 37.109375 17.671875 38.8125 
z
M 15.921875 53.71875 
Q 15.921875 48.640625 19.1875 45.40625 
Q 22.46875 42.1875 27.6875 42.1875 
Q 32.765625 42.1875 36.015625 45.375 
Q 39.265625 48.578125 39.265625 53.21875 
Q 39.265625 58.0625 35.90625 61.359375 
Q 32.5625 64.65625 27.59375 64.65625 
Q 22.5625 64.65625 19.234375 61.421875 
Q 15.921875 58.203125 15.921875 53.71875 
z
M 13.09375 20.65625 
Q 13.09375 16.890625 14.875 13.375 
Q 16.65625 9.859375 20.171875 7.921875 
Q 23.6875 6 27.734375 6 
Q 34.03125 6 38.125 10.046875 
Q 42.234375 14.109375 42.234375 20.359375 
Q 42.234375 26.703125 38.015625 30.859375 
Q 33.796875 35.015625 27.4375 35.015625 
Q 21.234375 35.015625 17.15625 30.90625 
Q 13.09375 26.8125 13.09375 20.65625 
z
" id="ArialMT-56"/>
       </defs>
       <use xlink:href="#ArialMT-52"/>
       <use x="55.615234" xlink:href="#ArialMT-56"/>
      </g>
     </g>
    </g>
    <g id="xtick_5">
     <g id="line2d_5">
      <g>
       <use style="stroke:#000000;stroke-width:0.8;" x="134.696085" xlink:href="#md10b629336" y="96.810656"/>
      </g>
     </g>
     <g id="text_5">
      <!-- 96 -->
      <g transform="translate(129.135147 110.968469)scale(0.1 -0.1)">
       <defs>
        <path d="M 5.46875 16.546875 
L 13.921875 17.328125 
Q 14.984375 11.375 18.015625 8.6875 
Q 21.046875 6 25.78125 6 
Q 29.828125 6 32.875 7.859375 
Q 35.9375 9.71875 37.890625 12.8125 
Q 39.84375 15.921875 41.15625 21.1875 
Q 42.484375 26.46875 42.484375 31.9375 
Q 42.484375 32.515625 42.4375 33.6875 
Q 39.796875 29.5 35.234375 26.875 
Q 30.671875 24.265625 25.34375 24.265625 
Q 16.453125 24.265625 10.296875 30.703125 
Q 4.15625 37.15625 4.15625 47.703125 
Q 4.15625 58.59375 10.578125 65.234375 
Q 17 71.875 26.65625 71.875 
Q 33.640625 71.875 39.421875 68.109375 
Q 45.21875 64.359375 48.21875 57.390625 
Q 51.21875 50.4375 51.21875 37.25 
Q 51.21875 23.53125 48.234375 15.40625 
Q 45.265625 7.28125 39.375 3.03125 
Q 33.5 -1.21875 25.59375 -1.21875 
Q 17.1875 -1.21875 11.859375 3.4375 
Q 6.546875 8.109375 5.46875 16.546875 
z
M 41.453125 48.140625 
Q 41.453125 55.71875 37.421875 60.15625 
Q 33.40625 64.59375 27.734375 64.59375 
Q 21.875 64.59375 17.53125 59.8125 
Q 13.1875 55.03125 13.1875 47.40625 
Q 13.1875 40.578125 17.3125 36.296875 
Q 21.4375 32.03125 27.484375 32.03125 
Q 33.59375 32.03125 37.515625 36.296875 
Q 41.453125 40.578125 41.453125 48.140625 
z
" id="ArialMT-57"/>
        <path d="M 49.75 54.046875 
L 41.015625 53.375 
Q 39.84375 58.546875 37.703125 60.890625 
Q 34.125 64.65625 28.90625 64.65625 
Q 24.703125 64.65625 21.53125 62.3125 
Q 17.390625 59.28125 14.984375 53.46875 
Q 12.59375 47.65625 12.5 36.921875 
Q 15.671875 41.75 20.265625 44.09375 
Q 24.859375 46.4375 29.890625 46.4375 
Q 38.671875 46.4375 44.84375 39.96875 
Q 51.03125 33.5 51.03125 23.25 
Q 51.03125 16.5 48.125 10.71875 
Q 45.21875 4.9375 40.140625 1.859375 
Q 35.0625 -1.21875 28.609375 -1.21875 
Q 17.625 -1.21875 10.6875 6.859375 
Q 3.765625 14.9375 3.765625 33.5 
Q 3.765625 54.25 11.421875 63.671875 
Q 18.109375 71.875 29.4375 71.875 
Q 37.890625 71.875 43.28125 67.140625 
Q 48.6875 62.40625 49.75 54.046875 
z
M 13.875 23.1875 
Q 13.875 18.65625 15.796875 14.5 
Q 17.71875 10.359375 21.1875 8.171875 
Q 24.65625 6 28.46875 6 
Q 34.03125 6 38.03125 10.484375 
Q 42.046875 14.984375 42.046875 22.703125 
Q 42.046875 30.125 38.078125 34.390625 
Q 34.125 38.671875 28.125 38.671875 
Q 22.171875 38.671875 18.015625 34.390625 
Q 13.875 30.125 13.875 23.1875 
z
" id="ArialMT-54"/>
       </defs>
       <use xlink:href="#ArialMT-57"/>
       <use x="55.615234" xlink:href="#ArialMT-54"/>
      </g>
     </g>
    </g>
    <g id="xtick_6">
     <g id="line2d_6">
      <g>
       <use style="stroke:#000000;stroke-width:0.8;" x="155.909308" xlink:href="#md10b629336" y="96.810656"/>
      </g>
     </g>
     <g id="text_6">
      <!-- 192 -->
      <g transform="translate(147.567902 110.968469)scale(0.1 -0.1)">
       <use xlink:href="#ArialMT-49"/>
       <use x="55.615234" xlink:href="#ArialMT-57"/>
       <use x="111.230469" xlink:href="#ArialMT-50"/>
      </g>
     </g>
    </g>
    <g id="text_7">
     <!-- Waiting time (h) -->
     <g transform="translate(68.058281 124.235656)scale(0.1 -0.1)">
      <defs>
       <path d="M 20.21875 0 
L 1.21875 71.578125 
L 10.9375 71.578125 
L 21.828125 24.65625 
Q 23.578125 17.28125 24.859375 10.015625 
Q 27.59375 21.484375 28.078125 23.25 
L 41.703125 71.578125 
L 53.125 71.578125 
L 63.375 35.359375 
Q 67.234375 21.875 68.953125 10.015625 
Q 70.3125 16.796875 72.515625 25.59375 
L 83.734375 71.578125 
L 93.265625 71.578125 
L 73.640625 0 
L 64.5 0 
L 49.421875 54.546875 
Q 47.515625 61.375 47.171875 62.9375 
Q 46.046875 58.015625 45.0625 54.546875 
L 29.890625 0 
z
" id="ArialMT-87"/>
       <path d="M 40.4375 6.390625 
Q 35.546875 2.25 31.03125 0.53125 
Q 26.515625 -1.171875 21.34375 -1.171875 
Q 12.796875 -1.171875 8.203125 3 
Q 3.609375 7.171875 3.609375 13.671875 
Q 3.609375 17.484375 5.34375 20.625 
Q 7.078125 23.78125 9.890625 25.6875 
Q 12.703125 27.59375 16.21875 28.5625 
Q 18.796875 29.25 24.03125 29.890625 
Q 34.671875 31.15625 39.703125 32.90625 
Q 39.75 34.71875 39.75 35.203125 
Q 39.75 40.578125 37.25 42.78125 
Q 33.890625 45.75 27.25 45.75 
Q 21.046875 45.75 18.09375 43.578125 
Q 15.140625 41.40625 13.71875 35.890625 
L 5.125 37.0625 
Q 6.296875 42.578125 8.984375 45.96875 
Q 11.671875 49.359375 16.75 51.1875 
Q 21.828125 53.03125 28.515625 53.03125 
Q 35.15625 53.03125 39.296875 51.46875 
Q 43.453125 49.90625 45.40625 47.53125 
Q 47.359375 45.171875 48.140625 41.546875 
Q 48.578125 39.3125 48.578125 33.453125 
L 48.578125 21.734375 
Q 48.578125 9.46875 49.140625 6.21875 
Q 49.703125 2.984375 51.375 0 
L 42.1875 0 
Q 40.828125 2.734375 40.4375 6.390625 
z
M 39.703125 26.03125 
Q 34.90625 24.078125 25.34375 22.703125 
Q 19.921875 21.921875 17.671875 20.9375 
Q 15.4375 19.96875 14.203125 18.09375 
Q 12.984375 16.21875 12.984375 13.921875 
Q 12.984375 10.40625 15.640625 8.0625 
Q 18.3125 5.71875 23.4375 5.71875 
Q 28.515625 5.71875 32.46875 7.9375 
Q 36.421875 10.15625 38.28125 14.015625 
Q 39.703125 17 39.703125 22.796875 
z
" id="ArialMT-97"/>
       <path d="M 6.640625 61.46875 
L 6.640625 71.578125 
L 15.4375 71.578125 
L 15.4375 61.46875 
z
M 6.640625 0 
L 6.640625 51.859375 
L 15.4375 51.859375 
L 15.4375 0 
z
" id="ArialMT-105"/>
       <path d="M 25.78125 7.859375 
L 27.046875 0.09375 
Q 23.34375 -0.6875 20.40625 -0.6875 
Q 15.625 -0.6875 12.984375 0.828125 
Q 10.359375 2.34375 9.28125 4.8125 
Q 8.203125 7.28125 8.203125 15.1875 
L 8.203125 45.015625 
L 1.765625 45.015625 
L 1.765625 51.859375 
L 8.203125 51.859375 
L 8.203125 64.703125 
L 16.9375 69.96875 
L 16.9375 51.859375 
L 25.78125 51.859375 
L 25.78125 45.015625 
L 16.9375 45.015625 
L 16.9375 14.703125 
Q 16.9375 10.9375 17.40625 9.859375 
Q 17.875 8.796875 18.921875 8.15625 
Q 19.96875 7.515625 21.921875 7.515625 
Q 23.390625 7.515625 25.78125 7.859375 
z
" id="ArialMT-116"/>
       <path d="M 6.59375 0 
L 6.59375 51.859375 
L 14.5 51.859375 
L 14.5 44.484375 
Q 20.21875 53.03125 31 53.03125 
Q 35.6875 53.03125 39.625 51.34375 
Q 43.5625 49.65625 45.515625 46.921875 
Q 47.46875 44.1875 48.25 40.4375 
Q 48.734375 37.984375 48.734375 31.890625 
L 48.734375 0 
L 39.9375 0 
L 39.9375 31.546875 
Q 39.9375 36.921875 38.90625 39.578125 
Q 37.890625 42.234375 35.28125 43.8125 
Q 32.671875 45.40625 29.15625 45.40625 
Q 23.53125 45.40625 19.453125 41.84375 
Q 15.375 38.28125 15.375 28.328125 
L 15.375 0 
z
" id="ArialMT-110"/>
       <path d="M 4.984375 -4.296875 
L 13.53125 -5.5625 
Q 14.0625 -9.515625 16.5 -11.328125 
Q 19.78125 -13.765625 25.4375 -13.765625 
Q 31.546875 -13.765625 34.859375 -11.328125 
Q 38.1875 -8.890625 39.359375 -4.5 
Q 40.046875 -1.8125 39.984375 6.78125 
Q 34.234375 0 25.640625 0 
Q 14.9375 0 9.078125 7.71875 
Q 3.21875 15.4375 3.21875 26.21875 
Q 3.21875 33.640625 5.90625 39.90625 
Q 8.59375 46.1875 13.6875 49.609375 
Q 18.796875 53.03125 25.6875 53.03125 
Q 34.859375 53.03125 40.828125 45.609375 
L 40.828125 51.859375 
L 48.921875 51.859375 
L 48.921875 7.03125 
Q 48.921875 -5.078125 46.453125 -10.125 
Q 44 -15.1875 38.640625 -18.109375 
Q 33.296875 -21.046875 25.484375 -21.046875 
Q 16.21875 -21.046875 10.5 -16.875 
Q 4.78125 -12.703125 4.984375 -4.296875 
z
M 12.25 26.859375 
Q 12.25 16.65625 16.296875 11.96875 
Q 20.359375 7.28125 26.46875 7.28125 
Q 32.515625 7.28125 36.609375 11.9375 
Q 40.71875 16.609375 40.71875 26.5625 
Q 40.71875 36.078125 36.5 40.90625 
Q 32.28125 45.75 26.3125 45.75 
Q 20.453125 45.75 16.34375 40.984375 
Q 12.25 36.234375 12.25 26.859375 
z
" id="ArialMT-103"/>
       <path id="ArialMT-32"/>
       <path d="M 6.59375 0 
L 6.59375 51.859375 
L 14.453125 51.859375 
L 14.453125 44.578125 
Q 16.890625 48.390625 20.9375 50.703125 
Q 25 53.03125 30.171875 53.03125 
Q 35.9375 53.03125 39.625 50.640625 
Q 43.3125 48.25 44.828125 43.953125 
Q 50.984375 53.03125 60.84375 53.03125 
Q 68.5625 53.03125 72.703125 48.75 
Q 76.859375 44.484375 76.859375 35.59375 
L 76.859375 0 
L 68.109375 0 
L 68.109375 32.671875 
Q 68.109375 37.9375 67.25 40.25 
Q 66.40625 42.578125 64.15625 43.984375 
Q 61.921875 45.40625 58.890625 45.40625 
Q 53.421875 45.40625 49.796875 41.765625 
Q 46.1875 38.140625 46.1875 30.125 
L 46.1875 0 
L 37.40625 0 
L 37.40625 33.6875 
Q 37.40625 39.546875 35.25 42.46875 
Q 33.109375 45.40625 28.21875 45.40625 
Q 24.515625 45.40625 21.359375 43.453125 
Q 18.21875 41.5 16.796875 37.734375 
Q 15.375 33.984375 15.375 26.90625 
L 15.375 0 
z
" id="ArialMT-109"/>
       <path d="M 42.09375 16.703125 
L 51.171875 15.578125 
Q 49.03125 7.625 43.21875 3.21875 
Q 37.40625 -1.171875 28.375 -1.171875 
Q 17 -1.171875 10.328125 5.828125 
Q 3.65625 12.84375 3.65625 25.484375 
Q 3.65625 38.578125 10.390625 45.796875 
Q 17.140625 53.03125 27.875 53.03125 
Q 38.28125 53.03125 44.875 45.953125 
Q 51.46875 38.875 51.46875 26.03125 
Q 51.46875 25.25 51.421875 23.6875 
L 12.75 23.6875 
Q 13.234375 15.140625 17.578125 10.59375 
Q 21.921875 6.0625 28.421875 6.0625 
Q 33.25 6.0625 36.671875 8.59375 
Q 40.09375 11.140625 42.09375 16.703125 
z
M 13.234375 30.90625 
L 42.1875 30.90625 
Q 41.609375 37.453125 38.875 40.71875 
Q 34.671875 45.796875 27.984375 45.796875 
Q 21.921875 45.796875 17.796875 41.75 
Q 13.671875 37.703125 13.234375 30.90625 
z
" id="ArialMT-101"/>
       <path d="M 23.390625 -21.046875 
Q 16.109375 -11.859375 11.078125 0.4375 
Q 6.0625 12.75 6.0625 25.921875 
Q 6.0625 37.546875 9.8125 48.1875 
Q 14.203125 60.546875 23.390625 72.796875 
L 29.6875 72.796875 
Q 23.78125 62.640625 21.875 58.296875 
Q 18.890625 51.5625 17.1875 44.234375 
Q 15.09375 35.109375 15.09375 25.875 
Q 15.09375 2.390625 29.6875 -21.046875 
z
" id="ArialMT-40"/>
       <path d="M 6.59375 0 
L 6.59375 71.578125 
L 15.375 71.578125 
L 15.375 45.90625 
Q 21.53125 53.03125 30.90625 53.03125 
Q 36.671875 53.03125 40.921875 50.75 
Q 45.171875 48.484375 47 44.484375 
Q 48.828125 40.484375 48.828125 32.859375 
L 48.828125 0 
L 40.046875 0 
L 40.046875 32.859375 
Q 40.046875 39.453125 37.1875 42.453125 
Q 34.328125 45.453125 29.109375 45.453125 
Q 25.203125 45.453125 21.75 43.421875 
Q 18.3125 41.40625 16.84375 37.9375 
Q 15.375 34.46875 15.375 28.375 
L 15.375 0 
z
" id="ArialMT-104"/>
       <path d="M 12.359375 -21.046875 
L 6.0625 -21.046875 
Q 20.65625 2.390625 20.65625 25.875 
Q 20.65625 35.0625 18.5625 44.09375 
Q 16.890625 51.421875 13.921875 58.15625 
Q 12.015625 62.546875 6.0625 72.796875 
L 12.359375 72.796875 
Q 21.53125 60.546875 25.921875 48.1875 
Q 29.6875 37.546875 29.6875 25.921875 
Q 29.6875 12.75 24.625 0.4375 
Q 19.578125 -11.859375 12.359375 -21.046875 
z
" id="ArialMT-41"/>
      </defs>
      <use xlink:href="#ArialMT-87"/>
      <use x="90.634766" xlink:href="#ArialMT-97"/>
      <use x="146.25" xlink:href="#ArialMT-105"/>
      <use x="168.466797" xlink:href="#ArialMT-116"/>
      <use x="196.25" xlink:href="#ArialMT-105"/>
      <use x="218.466797" xlink:href="#ArialMT-110"/>
      <use x="274.082031" xlink:href="#ArialMT-103"/>
      <use x="329.697266" xlink:href="#ArialMT-32"/>
      <use x="357.480469" xlink:href="#ArialMT-116"/>
      <use x="385.263672" xlink:href="#ArialMT-105"/>
      <use x="407.480469" xlink:href="#ArialMT-109"/>
      <use x="490.78125" xlink:href="#ArialMT-101"/>
      <use x="546.396484" xlink:href="#ArialMT-32"/>
      <use x="574.179688" xlink:href="#ArialMT-40"/>
      <use x="607.480469" xlink:href="#ArialMT-104"/>
      <use x="663.095703" xlink:href="#ArialMT-41"/>
     </g>
    </g>
   </g>
   <g id="matplotlib.axis_2">
    <g id="ytick_1">
     <g id="line2d_7">
      <defs>
       <path d="M 0 0 
L -3.5 0 
" id="meec22ac51c" style="stroke:#000000;stroke-width:0.8;"/>
      </defs>
      <g>
       <use style="stroke:#000000;stroke-width:0.8;" x="38.70625" xlink:href="#meec22ac51c" y="77.711419"/>
      </g>
     </g>
     <g id="text_8">
      <!-- 10 -->
      <g transform="translate(20.584375 81.290325)scale(0.1 -0.1)">
       <use xlink:href="#ArialMT-49"/>
       <use x="55.615234" xlink:href="#ArialMT-48"/>
      </g>
     </g>
    </g>
    <g id="ytick_2">
     <g id="line2d_8">
      <g>
       <use style="stroke:#000000;stroke-width:0.8;" x="38.70625" xlink:href="#meec22ac51c" y="52.434637"/>
      </g>
     </g>
     <g id="text_9">
      <!-- 15 -->
      <g transform="translate(20.584375 56.013543)scale(0.1 -0.1)">
       <defs>
        <path d="M 4.15625 18.75 
L 13.375 19.53125 
Q 14.40625 12.796875 18.140625 9.390625 
Q 21.875 6 27.15625 6 
Q 33.5 6 37.890625 10.78125 
Q 42.28125 15.578125 42.28125 23.484375 
Q 42.28125 31 38.0625 35.34375 
Q 33.84375 39.703125 27 39.703125 
Q 22.75 39.703125 19.328125 37.765625 
Q 15.921875 35.84375 13.96875 32.765625 
L 5.71875 33.84375 
L 12.640625 70.609375 
L 48.25 70.609375 
L 48.25 62.203125 
L 19.671875 62.203125 
L 15.828125 42.96875 
Q 22.265625 47.46875 29.34375 47.46875 
Q 38.71875 47.46875 45.15625 40.96875 
Q 51.609375 34.46875 51.609375 24.265625 
Q 51.609375 14.546875 45.953125 7.46875 
Q 39.0625 -1.21875 27.15625 -1.21875 
Q 17.390625 -1.21875 11.203125 4.25 
Q 5.03125 9.71875 4.15625 18.75 
z
" id="ArialMT-53"/>
       </defs>
       <use xlink:href="#ArialMT-49"/>
       <use x="55.615234" xlink:href="#ArialMT-53"/>
      </g>
     </g>
    </g>
    <g id="ytick_3">
     <g id="line2d_9">
      <g>
       <use style="stroke:#000000;stroke-width:0.8;" x="38.70625" xlink:href="#meec22ac51c" y="27.157855"/>
      </g>
     </g>
     <g id="text_10">
      <!-- 20 -->
      <g transform="translate(20.584375 30.736761)scale(0.1 -0.1)">
       <use xlink:href="#ArialMT-50"/>
       <use x="55.615234" xlink:href="#ArialMT-48"/>
      </g>
     </g>
    </g>
    <g id="text_11">
     <!-- Homing distance (m) -->
     <g transform="translate(14.479687 99.445313)rotate(-90)scale(0.1 -0.1)">
      <defs>
       <path d="M 8.015625 0 
L 8.015625 71.578125 
L 17.484375 71.578125 
L 17.484375 42.1875 
L 54.6875 42.1875 
L 54.6875 71.578125 
L 64.15625 71.578125 
L 64.15625 0 
L 54.6875 0 
L 54.6875 33.734375 
L 17.484375 33.734375 
L 17.484375 0 
z
" id="ArialMT-72"/>
       <path d="M 3.328125 25.921875 
Q 3.328125 40.328125 11.328125 47.265625 
Q 18.015625 53.03125 27.640625 53.03125 
Q 38.328125 53.03125 45.109375 46.015625 
Q 51.90625 39.015625 51.90625 26.65625 
Q 51.90625 16.65625 48.90625 10.90625 
Q 45.90625 5.171875 40.15625 2 
Q 34.421875 -1.171875 27.640625 -1.171875 
Q 16.75 -1.171875 10.03125 5.8125 
Q 3.328125 12.796875 3.328125 25.921875 
z
M 12.359375 25.921875 
Q 12.359375 15.96875 16.703125 11.015625 
Q 21.046875 6.0625 27.640625 6.0625 
Q 34.1875 6.0625 38.53125 11.03125 
Q 42.875 16.015625 42.875 26.21875 
Q 42.875 35.84375 38.5 40.796875 
Q 34.125 45.75 27.640625 45.75 
Q 21.046875 45.75 16.703125 40.8125 
Q 12.359375 35.890625 12.359375 25.921875 
z
" id="ArialMT-111"/>
       <path d="M 40.234375 0 
L 40.234375 6.546875 
Q 35.296875 -1.171875 25.734375 -1.171875 
Q 19.53125 -1.171875 14.328125 2.25 
Q 9.125 5.671875 6.265625 11.796875 
Q 3.421875 17.921875 3.421875 25.875 
Q 3.421875 33.640625 6 39.96875 
Q 8.59375 46.296875 13.765625 49.65625 
Q 18.953125 53.03125 25.34375 53.03125 
Q 30.03125 53.03125 33.6875 51.046875 
Q 37.359375 49.078125 39.65625 45.90625 
L 39.65625 71.578125 
L 48.390625 71.578125 
L 48.390625 0 
z
M 12.453125 25.875 
Q 12.453125 15.921875 16.640625 10.984375 
Q 20.84375 6.0625 26.5625 6.0625 
Q 32.328125 6.0625 36.34375 10.765625 
Q 40.375 15.484375 40.375 25.140625 
Q 40.375 35.796875 36.265625 40.765625 
Q 32.171875 45.75 26.171875 45.75 
Q 20.3125 45.75 16.375 40.96875 
Q 12.453125 36.1875 12.453125 25.875 
z
" id="ArialMT-100"/>
       <path d="M 3.078125 15.484375 
L 11.765625 16.84375 
Q 12.5 11.625 15.84375 8.84375 
Q 19.1875 6.0625 25.203125 6.0625 
Q 31.25 6.0625 34.171875 8.515625 
Q 37.109375 10.984375 37.109375 14.3125 
Q 37.109375 17.28125 34.515625 19 
Q 32.71875 20.171875 25.53125 21.96875 
Q 15.875 24.421875 12.140625 26.203125 
Q 8.40625 27.984375 6.46875 31.125 
Q 4.546875 34.28125 4.546875 38.09375 
Q 4.546875 41.546875 6.125 44.5 
Q 7.71875 47.46875 10.453125 49.421875 
Q 12.5 50.921875 16.03125 51.96875 
Q 19.578125 53.03125 23.640625 53.03125 
Q 29.734375 53.03125 34.34375 51.265625 
Q 38.96875 49.515625 41.15625 46.5 
Q 43.359375 43.5 44.1875 38.484375 
L 35.59375 37.3125 
Q 35.015625 41.3125 32.203125 43.546875 
Q 29.390625 45.796875 24.265625 45.796875 
Q 18.21875 45.796875 15.625 43.796875 
Q 13.03125 41.796875 13.03125 39.109375 
Q 13.03125 37.40625 14.109375 36.03125 
Q 15.1875 34.625 17.484375 33.6875 
Q 18.796875 33.203125 25.25 31.453125 
Q 34.578125 28.953125 38.25 27.359375 
Q 41.9375 25.78125 44.03125 22.75 
Q 46.140625 19.734375 46.140625 15.234375 
Q 46.140625 10.84375 43.578125 6.953125 
Q 41.015625 3.078125 36.171875 0.953125 
Q 31.34375 -1.171875 25.25 -1.171875 
Q 15.140625 -1.171875 9.84375 3.03125 
Q 4.546875 7.234375 3.078125 15.484375 
z
" id="ArialMT-115"/>
       <path d="M 40.4375 19 
L 49.078125 17.875 
Q 47.65625 8.9375 41.8125 3.875 
Q 35.984375 -1.171875 27.484375 -1.171875 
Q 16.84375 -1.171875 10.375 5.78125 
Q 3.90625 12.75 3.90625 25.734375 
Q 3.90625 34.125 6.6875 40.421875 
Q 9.46875 46.734375 15.15625 49.875 
Q 20.84375 53.03125 27.546875 53.03125 
Q 35.984375 53.03125 41.359375 48.75 
Q 46.734375 44.484375 48.25 36.625 
L 39.703125 35.296875 
Q 38.484375 40.53125 35.375 43.15625 
Q 32.28125 45.796875 27.875 45.796875 
Q 21.234375 45.796875 17.078125 41.03125 
Q 12.9375 36.28125 12.9375 25.984375 
Q 12.9375 15.53125 16.9375 10.796875 
Q 20.953125 6.0625 27.390625 6.0625 
Q 32.5625 6.0625 36.03125 9.234375 
Q 39.5 12.40625 40.4375 19 
z
" id="ArialMT-99"/>
      </defs>
      <use xlink:href="#ArialMT-72"/>
      <use x="72.216797" xlink:href="#ArialMT-111"/>
      <use x="127.832031" xlink:href="#ArialMT-109"/>
      <use x="211.132812" xlink:href="#ArialMT-105"/>
      <use x="233.349609" xlink:href="#ArialMT-110"/>
      <use x="288.964844" xlink:href="#ArialMT-103"/>
      <use x="344.580078" xlink:href="#ArialMT-32"/>
      <use x="372.363281" xlink:href="#ArialMT-100"/>
      <use x="427.978516" xlink:href="#ArialMT-105"/>
      <use x="450.195312" xlink:href="#ArialMT-115"/>
      <use x="500.195312" xlink:href="#ArialMT-116"/>
      <use x="527.978516" xlink:href="#ArialMT-97"/>
      <use x="583.59375" xlink:href="#ArialMT-110"/>
      <use x="639.208984" xlink:href="#ArialMT-99"/>
      <use x="689.208984" xlink:href="#ArialMT-101"/>
      <use x="744.824219" xlink:href="#ArialMT-32"/>
      <use x="772.607422" xlink:href="#ArialMT-40"/>
      <use x="805.908203" xlink:href="#ArialMT-109"/>
      <use x="889.208984" xlink:href="#ArialMT-41"/>
     </g>
    </g>
   </g>
   <g id="LineCollection_1">
    <path clip-path="url(#p7b80cdc57b)" d="M 47.191539 44.873943 
L 52.494845 44.873943 
" style="fill:none;stroke:#1f77b4;stroke-width:1.5;"/>
    <path clip-path="url(#p7b80cdc57b)" d="M 68.404762 45.012904 
L 73.708068 45.012904 
" style="fill:none;stroke:#1f77b4;stroke-width:1.5;"/>
    <path clip-path="url(#p7b80cdc57b)" d="M 89.617986 40.253212 
L 94.921291 40.253212 
" style="fill:none;stroke:#1f77b4;stroke-width:1.5;"/>
    <path clip-path="url(#p7b80cdc57b)" d="M 110.831209 30.222003 
L 116.134514 30.222003 
" style="fill:none;stroke:#1f77b4;stroke-width:1.5;"/>
    <path clip-path="url(#p7b80cdc57b)" d="M 132.044432 29.970432 
L 137.347738 29.970432 
" style="fill:none;stroke:#1f77b4;stroke-width:1.5;"/>
    <path clip-path="url(#p7b80cdc57b)" d="M 153.257655 13.788111 
L 158.560961 13.788111 
" style="fill:none;stroke:#1f77b4;stroke-width:1.5;"/>
   </g>
   <g id="LineCollection_2">
    <path clip-path="url(#p7b80cdc57b)" d="M 47.191539 81.085151 
L 52.494845 81.085151 
" style="fill:none;stroke:#1f77b4;stroke-width:1.5;"/>
    <path clip-path="url(#p7b80cdc57b)" d="M 68.404762 81.126583 
L 73.708068 81.126583 
" style="fill:none;stroke:#1f77b4;stroke-width:1.5;"/>
    <path clip-path="url(#p7b80cdc57b)" d="M 89.617986 89.684861 
L 94.921291 89.684861 
" style="fill:none;stroke:#1f77b4;stroke-width:1.5;"/>
    <path clip-path="url(#p7b80cdc57b)" d="M 110.831209 84.621957 
L 116.134514 84.621957 
" style="fill:none;stroke:#1f77b4;stroke-width:1.5;"/>
    <path clip-path="url(#p7b80cdc57b)" d="M 132.044432 90.506493 
L 137.347738 90.506493 
" style="fill:none;stroke:#1f77b4;stroke-width:1.5;"/>
    <path clip-path="url(#p7b80cdc57b)" d="M 153.257655 92.857202 
L 158.560961 92.857202 
" style="fill:none;stroke:#1f77b4;stroke-width:1.5;"/>
   </g>
   <g id="LineCollection_3">
    <path clip-path="url(#p7b80cdc57b)" d="M 49.843192 81.085151 
L 49.843192 44.873943 
" style="fill:none;stroke:#1f77b4;stroke-width:1.5;"/>
    <path clip-path="url(#p7b80cdc57b)" d="M 71.056415 81.126583 
L 71.056415 45.012904 
" style="fill:none;stroke:#1f77b4;stroke-width:1.5;"/>
    <path clip-path="url(#p7b80cdc57b)" d="M 92.269638 89.684861 
L 92.269638 40.253212 
" style="fill:none;stroke:#1f77b4;stroke-width:1.5;"/>
    <path clip-path="url(#p7b80cdc57b)" d="M 113.482862 84.621957 
L 113.482862 30.222003 
" style="fill:none;stroke:#1f77b4;stroke-width:1.5;"/>
    <path clip-path="url(#p7b80cdc57b)" d="M 134.696085 90.506493 
L 134.696085 29.970432 
" style="fill:none;stroke:#1f77b4;stroke-width:1.5;"/>
    <path clip-path="url(#p7b80cdc57b)" d="M 155.909308 92.857202 
L 155.909308 13.788111 
" style="fill:none;stroke:#1f77b4;stroke-width:1.5;"/>
   </g>
   <g id="LineCollection_4">
    <path clip-path="url(#p7b80cdc57b)" d="M 47.191539 62.747079 
L 52.494845 62.747079 
" style="fill:none;stroke:#1f77b4;stroke-width:1.5;"/>
    <path clip-path="url(#p7b80cdc57b)" d="M 68.404762 61.949792 
L 73.708068 61.949792 
" style="fill:none;stroke:#1f77b4;stroke-width:1.5;"/>
    <path clip-path="url(#p7b80cdc57b)" d="M 89.617986 61.473965 
L 94.921291 61.473965 
" style="fill:none;stroke:#1f77b4;stroke-width:1.5;"/>
    <path clip-path="url(#p7b80cdc57b)" d="M 110.831209 61.23581 
L 116.134514 61.23581 
" style="fill:none;stroke:#1f77b4;stroke-width:1.5;"/>
    <path clip-path="url(#p7b80cdc57b)" d="M 132.044432 59.941821 
L 137.347738 59.941821 
" style="fill:none;stroke:#1f77b4;stroke-width:1.5;"/>
    <path clip-path="url(#p7b80cdc57b)" d="M 153.257655 57.178207 
L 158.560961 57.178207 
" style="fill:none;stroke:#1f77b4;stroke-width:1.5;"/>
   </g>
   <g id="LineCollection_5">
    <path clip-path="url(#p7b80cdc57b)" d="M 49.843192 58.574172 
L 155.909308 58.574172 
" style="fill:none;stroke:#1f77b4;stroke-dasharray:5.55,2.4;stroke-dashoffset:0;stroke-width:1.5;"/>
   </g>
   <g id="patch_3">
    <path d="M 38.70625 96.810656 
L 38.70625 9.834656 
" style="fill:none;stroke:#000000;stroke-linecap:square;stroke-linejoin:miter;stroke-width:0.8;"/>
   </g>
   <g id="patch_4">
    <path d="M 38.70625 96.810656 
L 167.04625 96.810656 
" style="fill:none;stroke:#000000;stroke-linecap:square;stroke-linejoin:miter;stroke-width:0.8;"/>
   </g>
  </g>
 </g>
 <defs>
  <clipPath id="p7b80cdc57b">
   <rect height="86.976" width="128.34" x="38.70625" y="9.834656"/>
  </clipPath>
 </defs>
</svg>
